<?xml version="1.0" encoding="utf-8"?>
<!-- Generator: Adobe Illustrator 27.5.0, SVG Export Plug-In . SVG Version: 6.00 Build 0)  -->
<svg version="1.1" id="Layer_1" xmlns="http://www.w3.org/2000/svg" xmlns:xlink="http://www.w3.org/1999/xlink" x="0px" y="0px"
	 viewBox="0 0 841.9 595.3" style="enable-background:new 0 0 841.9 595.3;" xml:space="preserve">
<style type="text/css">
	.st0{fill:#BCC032;}
	.st1{fill:none;stroke:#157C55;stroke-miterlimit:10;}
	.st2{fill:#157C55;}
	.st3{font-family:'ArialRoundedMTBold';}
	.st4{font-size:8.849px;}
	.st5{font-size:38.495px;}
</style>
<g>
	<g>
		<path class="st0" d="M319.2,191.2L304,203.5c0,0,40.4,31,48.6,71.4c0,0,5.3,24.6,36.3,41.6c0,0,32.8,21.1,71.4,0
			c0,0,28.1-12.3,37.5-45.1c9.4-32.8-8.2-64.4-8.2-64.4l-4.1,12.9c0,0,11.7,29.3,1.8,54.5c0,0-5.9,15.2-12.9,19.3c0,0-7.6,0-0.6-58
			c0,0,13.5-50.9,24-59.7l-99.5,17c0,0,13.9,46.3,4,114.8l-10.5,0.6c0,0,8.8-93.1-2.3-123L458,173l-12.3-24.6
			c0,0-73.2,17.6-91.3,36.9c0,0,34,31,30.4,114.2l-9.4-4.1c0,0,5.3-70.8-33.4-112.4l40.4-23.4l-5.9-11.1l-59.7,28.1
			c0,0,45.1,39.8,53.9,107.7l-5.9-2.3c0,0-8.2-36.9-16.4-44.8c0,0-5.9-21.4-22.3-37.8L319.2,191.2z"/>
		<path class="st1" d="M406.2,317.8c0,0,10.4-84.9,0.5-103.6c0,0,8.2-10,4.3-15.2l60.7-11.1c0,0,4.7,10.5,7.6,8.8
			c0,0-24,49.2-15.2,106"/>
		<path class="st1" d="M393.3,254.5l-22.3-58c0,0,5.9-7.6,5.9-14.1l62.1-22.3c0,0,4.1,9.4,12.9,7v5.3"/>
		<ellipse class="st2" cx="436.2" cy="291.2" rx="13.3" ry="21.5"/>
		<g>
			<text transform="matrix(0 -1 1 0 440.148 302.0148)" class="st0 st3 st4">RWF</text>
		</g>
	</g>
	<g>
		<text transform="matrix(1 0 0 1 304.0328 362.6832)" class="st2 st3 st5">AGRICREDS</text>
	</g>
</g>
</svg>
