<?xml version="1.0" encoding="utf-8"?>
<!-- Generator: Adobe Illustrator 27.5.0, SVG Export Plug-In . SVG Version: 6.00 Build 0)  -->
<svg version="1.1" id="Layer_1" xmlns="http://www.w3.org/2000/svg" xmlns:xlink="http://www.w3.org/1999/xlink" x="0px" y="0px"
	 viewBox="0 0 160 160" style="enable-background:new 0 0 160 160;" xml:space="preserve">
<style type="text/css">
	.st0{fill:#BCC032;}
	.st1{fill:none;stroke:#157C55;stroke-miterlimit:10;}
	.st2{fill:#157C55;}
	.st3{font-family:'ArialRoundedMTBold';}
	.st4{font-size:5.5985px;}
	.st5{font-size:24.3547px;}
</style>
<g>
	<path class="st0" d="M17.4,35.1l-9.6,7.8c0,0,25.6,19.6,30.7,45.2c0,0,3.3,15.6,23,26.3c0,0,20.7,13.3,45.2,0
		c0,0,17.8-7.8,23.7-28.5c5.9-20.7-5.2-40.7-5.2-40.7l-2.6,8.1c0,0,7.4,18.5,1.1,34.5c0,0-3.7,9.6-8.1,12.2c0,0-4.8,0-0.4-36.7
		c0,0,8.5-32.2,15.2-37.8l-63,10.7c0,0,8.8,29.3,2.5,72.6l-6.6,0.4c0,0,5.6-58.9-1.5-77.8l43.3-7.8L97.4,8.1
		c0,0-46.3,11.1-57.8,23.3c0,0,21.5,19.6,19.3,72.2L53,101c0,0,3.3-44.8-21.1-71.1l25.6-14.8l-3.7-7L15.9,25.8
		c0,0,28.5,25.2,34.1,68.2l-3.7-1.5c0,0-5.2-23.3-10.4-28.3c0,0-3.7-13.5-14.1-23.9L17.4,35.1z"/>
	<path class="st1" d="M72.5,115.2c0,0,6.6-53.7,0.3-65.6c0,0,5.2-6.3,2.7-9.6l38.4-7c0,0,3,6.7,4.8,5.6c0,0-15.2,31.1-9.6,67.1"/>
	<path class="st1" d="M64.3,75.2L50.2,38.5c0,0,3.7-4.8,3.7-8.9l39.3-14.1c0,0,2.6,5.9,8.1,4.4v3.3"/>
	<ellipse class="st2" cx="91.4" cy="98.4" rx="8.4" ry="13.6"/>
	<g>
		<text transform="matrix(0 -1 1 0 93.9259 105.2376)" class="st0 st3 st4">RWF</text>
	</g>
</g>
<g>
	<text transform="matrix(1 0 0 1 7.8092 143.6204)" class="st2 st3 st5">AGRICREDS</text>
</g>
</svg>
