<?xml version="1.0" encoding="utf-8"?>
<!-- Generator: Adobe Illustrator 27.5.0, SVG Export Plug-In . SVG Version: 6.00 Build 0)  -->
<svg version="1.1" id="Layer_1" xmlns="http://www.w3.org/2000/svg" xmlns:xlink="http://www.w3.org/1999/xlink" x="0px" y="0px"
	 viewBox="0 0 160 160" style="enable-background:new 0 0 160 160;" xml:space="preserve">
<style type="text/css">
	.st0{fill:#157C55;}
	.st1{fill:none;stroke:#BCC032;stroke-miterlimit:10;}
	.st2{fill:#BCC032;}
	.st3{fill:#159255;}
	.st4{font-family:'MaiandraGD-Regular';}
	.st5{font-size:5.4338px;}
	.st6{font-family:'ArialRoundedMTBold';}
	.st7{font-size:23.7927px;}
</style>
<g>
	<path class="st0" d="M21.1,35l-9.4,7.6c0,0,25,19.2,30,44.2c0,0,3.3,15.2,22.4,25.7c0,0,20.3,13,44.2,0c0,0,17.4-7.6,23.2-27.9
		c5.8-20.3-5.1-39.8-5.1-39.8l-2.5,8c0,0,7.2,18.1,1.1,33.7c0,0-3.6,9.4-8,11.9c0,0-4.7,0-0.4-35.8c0,0,8.3-31.5,14.8-36.9L70,36.1
		c0,0,8.6,28.6,2.5,70.9l-6.5,0.4c0,0,5.4-57.5-1.4-76l42.3-7.6L99.3,8.6c0,0-45.2,10.9-56.5,22.8c0,0,21,19.2,18.8,70.6l-5.8-2.5
		c0,0,3.3-43.8-20.6-69.5l25-14.5l-3.6-6.9L19.6,26c0,0,27.9,24.6,33.3,66.6l-3.6-1.4c0,0-5.1-22.8-10.1-27.7
		c0,0-3.6-13.2-13.8-23.3L21.1,35z"/>
	<path class="st1" d="M74.9,113.3c0,0,6.5-52.5,0.3-64.1c0,0,5.1-6.2,2.7-9.4l37.5-6.9c0,0,2.9,6.5,4.7,5.4c0,0-14.8,30.4-9.4,65.5"
		/>
	<path class="st1" d="M66.9,74.2L53.1,38.4c0,0,3.6-4.7,3.6-8.7l38.4-13.8c0,0,2.5,5.8,8,4.3v3.3"/>
	<ellipse class="st2" cx="93.4" cy="96.8" rx="8.2" ry="13.3"/>
	<g>
		<text transform="matrix(0 -1 1 0 95.8361 103.5437)" class="st3 st4 st5">RWF</text>
	</g>
	<text transform="matrix(1 0 0 1 11.7052 141.0417)" class="st2 st6 st7">AGRICREDS</text>
</g>
</svg>
