<?xml version="1.0" encoding="utf-8"?>
<!-- Generator: Adobe Illustrator 27.5.0, SVG Export Plug-In . SVG Version: 6.00 Build 0)  -->
<svg version="1.1" id="Layer_1" xmlns="http://www.w3.org/2000/svg" xmlns:xlink="http://www.w3.org/1999/xlink" x="0px" y="0px"
	 viewBox="0 0 160 160" style="enable-background:new 0 0 160 160;" xml:space="preserve">
<style type="text/css">
	.st0{fill:#BCC032;}
	.st1{fill:none;stroke:#157C55;stroke-miterlimit:10;}
	.st2{fill:#157C55;}
	.st3{font-family:'ArialRoundedMTBold';}
	.st4{font-size:6.0738px;}
</style>
<g>
	<path class="st0" d="M22,44.7l-10.4,8.4c0,0,27.7,21.3,33.4,49c0,0,3.6,16.9,24.9,28.5c0,0,22.5,14.5,49,0c0,0,19.3-8.4,25.7-30.9
		S139,55.5,139,55.5l-2.8,8.8c0,0,8,20.1,1.2,37.4c0,0-4,10.4-8.8,13.3c0,0-5.2,0-0.4-39.8c0,0,9.2-35,16.5-41L76.3,45.9
		c0,0,9.5,31.7,2.8,78.8l-7.2,0.4c0,0,6-63.9-1.6-84.4l47-8.4l-8.4-16.9c0,0-50.2,12.1-62.7,25.3c0,0,23.3,21.3,20.9,78.4l-6.4-2.8
		c0,0,3.6-48.6-22.9-77.2L65.5,23l-4-7.6l-41,19.3c0,0,30.9,27.3,37,73.9l-4-1.6c0,0-5.6-25.3-11.3-30.7c0,0-4-14.7-15.3-25.9
		L22,44.7z"/>
	<path class="st1" d="M81.8,131.5c0,0,7.2-58.3,0.3-71.1c0,0,5.7-6.8,2.9-10.4l41.7-7.6c0,0,3.2,7.2,5.2,6c0,0-16.5,33.8-10.4,72.7"
		/>
	<path class="st1" d="M72.9,88.1L57.6,48.4c0,0,4-5.2,4-9.6l42.6-15.3c0,0,2.8,6.4,8.8,4.8v3.6"/>
	<ellipse class="st2" cx="102.4" cy="113.3" rx="9.1" ry="14.7"/>
	<g>
		<text transform="matrix(0 -1 1 0 105.0477 120.7435)" class="st0 st3 st4">RWF</text>
	</g>
</g>
</svg>
